<?xml version="1.0" encoding="UTF-8"?>
<svg version="1.1" xmlns="http://www.w3.org/2000/svg" width="500" height="500">
<path d="M0 0 C4.0665254 2.6854413 7.21259395 5.43218453 9 10 C9.94964347 16.70026226 9.43580555 21.67734802 5.4453125 27.20703125 C4.96835938 27.79871094 4.49140625 28.39039063 4 29 C3.52304688 29.60199219 3.04609375 30.20398438 2.5546875 30.82421875 C1.39913272 32.24059875 0.20372033 33.62431962 -1 35 C-0.566875 35.47050781 -0.13375 35.94101563 0.3125 36.42578125 C0.869375 37.04839844 1.42625 37.67101562 2 38.3125 C2.556875 38.92738281 3.11375 39.54226562 3.6875 40.17578125 C5 42 5 42 5 45 C3.02 45.99 1.04 46.98 -1 48 C-0.20335937 48.09796875 0.59328125 48.1959375 1.4140625 48.296875 C9.44443941 49.43011554 14.4661063 50.85122922 20 57 C20.33 54.36 20.66 51.72 21 49 C26.61 49 32.22 49 38 49 C38.04898438 50.89105469 38.09796875 52.78210938 38.1484375 54.73046875 C38.22347725 57.2161604 38.29902456 59.70183677 38.375 62.1875 C38.4059375 63.43337891 38.436875 64.67925781 38.46875 65.96289062 C38.50742188 67.16494141 38.54609375 68.36699219 38.5859375 69.60546875 C38.6173584 70.71043701 38.6487793 71.81540527 38.68115234 72.95385742 C39.02576363 76.24613538 39.57208431 79.57208431 42 82 C46.72651177 82.49480912 46.72651177 82.49480912 50.875 80.625 C53.20700713 77.25654526 53.18789118 74.75545124 53.31640625 70.6796875 C53.35830078 69.42285156 53.40019531 68.16601562 53.44335938 66.87109375 C53.48267578 65.55238281 53.52199219 64.23367187 53.5625 62.875 C53.60569512 61.53514249 53.64930973 60.19529844 53.69335938 58.85546875 C53.79970981 55.57042185 53.90173808 52.28529719 54 49 C56.81256281 48.97315688 59.62487241 48.95323812 62.4375 48.9375 C63.23994141 48.92912109 64.04238281 48.92074219 64.86914062 48.91210938 C66.91295221 48.9034857 68.95683902 48.9477185 71 49 C72 50 72 50 72.12025452 51.90455627 C72.11803391 52.73728561 72.11581329 53.57001495 72.11352539 54.42797852 C72.11344986 55.36887833 72.11337433 56.30977814 72.11329651 57.27919006 C72.10813522 58.30209641 72.10297394 59.32500275 72.09765625 60.37890625 C72.09553383 61.941605 72.09553383 61.941605 72.09336853 63.53587341 C72.0877508 66.87811094 72.0751953 70.22028257 72.0625 73.5625 C72.05748728 75.82226466 72.05292398 78.08203037 72.04882812 80.34179688 C72.03777561 85.89455682 72.0204991 91.44726722 72 97 C66.39 97 60.78 97 55 97 C55 96.01 55 95.02 55 94 C53.9275 94.66 52.855 95.32 51.75 96 C45.70188553 99.00261002 39.04265918 99.22723582 32.59375 97.26953125 C28.35431909 95.33173167 25.52740835 93.00172988 23 89 C23 88.34 23 87.68 23 87 C22.34 87 21.68 87 21 87 C20.79375 87.556875 20.5875 88.11375 20.375 88.6875 C17.18733299 94.04857633 12.85655038 96.42512931 7 98 C-1.67239769 98.82049087 -9.52518725 98.78953338 -17 94 C-17.57234375 93.63777344 -18.1446875 93.27554688 -18.734375 92.90234375 C-23.7399113 89.24731106 -26.40326999 84.37979857 -27.46484375 78.3671875 C-27.83427142 74.89557958 -28 71.49070171 -28 68 C-29.65 70.31 -31.3 72.62 -33 75 C-35.7552086 72.2447914 -36.7340486 70.77071195 -38.1875 67.3125 C-38.53167969 66.50425781 -38.87585938 65.69601563 -39.23046875 64.86328125 C-39.48441406 64.24839844 -39.73835938 63.63351563 -40 63 C-40.8353125 63.23396484 -40.8353125 63.23396484 -41.6875 63.47265625 C-47.21570193 64.88272127 -51.4247056 65.3938236 -57 64 C-60.1786241 61.4300486 -61.70728109 59.87815673 -63 56 C-63.5358577 50.42707996 -62.56500109 46.32756817 -59 42 C-54.63843128 37.79013801 -51.78226576 36.48674068 -45.75 35.25 C-39.80728889 33.66532548 -36.98184497 31.3978751 -33.88964844 26.08398438 C-32.68819792 23.81381874 -31.50421042 21.53528899 -30.32421875 19.25390625 C-24.65765933 8.38800902 -12.97108573 -2.16184762 0 0 Z M-9 68 C-10.5547669 71.10953379 -10.28644437 73.56266761 -10 77 C-7.7412063 81.24028619 -7.7412063 81.24028619 -4 84 C0.20366967 84.39657261 2.33223255 84.42623455 5.9375 82.125 C8.23215846 80.25436301 8.23215846 80.25436301 8 78 C8.77085938 78.3609375 9.54171875 78.721875 10.3359375 79.09375 C11.84027344 79.78984375 11.84027344 79.78984375 13.375 80.5 C14.87160156 81.19609375 14.87160156 81.19609375 16.3984375 81.90625 C18.83692626 83.1291873 18.83692626 83.1291873 21 83 C21 76.73 21 70.46 21 64 C15.97955518 65.66594715 15.97955518 65.66594715 11.125 67.625 C9.578125 68.305625 9.578125 68.305625 8 69 C7.731875 68.38125 7.46375 67.7625 7.1875 67.125 C6.04443152 64.7004767 6.04443152 64.7004767 3 63 C-2.9909354 62.22339726 -5.22743057 63.33976718 -9 68 Z " fill="#FEFEFE" transform="translate(94,184)"/>
<path d="M0 0 C5.61 0 11.22 0 17 0 C17 1.32 17 2.64 17 4 C18.051875 3.34 19.10375 2.68 20.1875 2 C26.80767802 -1.31598935 34.46596447 -1.09233825 41.4375 1.0625 C45.70171817 4.28666496 49.29181792 7.87545376 51 13 C51.22718496 15.56634861 51.41608184 18.11678107 51.5625 20.6875 C51.60568359 21.38939453 51.64886719 22.09128906 51.69335938 22.81445312 C51.7991736 24.54275206 51.90006581 26.2713511 52 28 C52.59425781 27.21238281 53.18851562 26.42476563 53.80078125 25.61328125 C56.78298561 22.06959614 59.54123855 20.7923892 64 20 C69.66334641 19.6648585 75.33342919 19.8261393 81 20 C79.27149179 16.37052055 79.27149179 16.37052055 76.08984375 14.1875 C69.75682008 13.63580284 64.99335382 14.88966415 59 17 C57.02 13.04 55.04 9.08 53 5 C63.71375073 0.11579011 76.01018162 -2.64783703 87.6875 1.0625 C93.40432114 4.40630104 96.9392721 8.69574292 99 15 C99.16464931 17.60836374 99.23392915 20.10319498 99.1953125 22.70703125 C99.1924826 23.43242599 99.18965271 24.15782074 99.18673706 24.90519714 C99.17559799 27.20780368 99.15050566 29.51001227 99.125 31.8125 C99.11496206 33.37955165 99.10583763 34.94660943 99.09765625 36.51367188 C99.077386 40.34272225 99.0382271 44.17091896 99 48 C93.72 48 88.44 48 83 48 C82.67 47.01 82.34 46.02 82 45 C81.566875 45.474375 81.13375 45.94875 80.6875 46.4375 C76.75559817 50.07814984 71.34454476 49.32616372 66.30859375 49.28125 C61.84998201 48.90224168 58.50059787 47.80945419 55 45 C53 42.25 53 42.25 52 40 C51.67 42.64 51.34 45.28 51 48 C45.39 48 39.78 48 34 48 C33.94392578 45.03773438 33.94392578 45.03773438 33.88671875 42.015625 C33.82106684 39.42706409 33.75461924 36.83852328 33.6875 34.25 C33.65366211 32.29707031 33.65366211 32.29707031 33.61914062 30.3046875 C33.58369141 29.05429687 33.54824219 27.80390625 33.51171875 26.515625 C33.48553467 25.36352539 33.45935059 24.21142578 33.43237305 23.02441406 C32.96197239 19.73399998 32.38526362 18.29101308 30 16 C25.26784416 15.37714185 25.26784416 15.37714185 21.125 17.375 C18.83477921 20.68309669 18.81447778 23.10025072 18.68359375 27.1015625 C18.64169922 28.31328125 18.59980469 29.525 18.55664062 30.7734375 C18.51732422 32.04445313 18.47800781 33.31546875 18.4375 34.625 C18.39431641 35.90375 18.35113281 37.1825 18.30664062 38.5 C18.2003019 41.66653082 18.0996233 44.83325079 18 48 C12.06 48 6.12 48 0 48 C0 32.16 0 16.32 0 0 Z M69 31 C68.67 31.99 68.34 32.98 68 34 C69.53827847 36.207809 69.53827847 36.207809 72 38 C75.86065562 38 78.07267614 37.86749651 80.9375 35.1875 C82.29126931 32.80564199 82.29126931 32.80564199 82 29 C80.58376784 28.94552953 79.16691809 28.90699492 77.75 28.875 C76.56664062 28.84019531 76.56664062 28.84019531 75.359375 28.8046875 C72.73033049 29.02232364 71.18951811 29.53709188 69 31 Z " fill="#FFFFFF" transform="translate(230,233)"/>
<path d="M0 0 C5.28 0 10.56 0 16 0 C16.33 1.32 16.66 2.64 17 4 C17.598125 3.525625 18.19625 3.05125 18.8125 2.5625 C21.95661505 0.31670354 24.42559413 -0.12417059 28.1875 -0.0625 C30.0746875 -0.0315625 30.0746875 -0.0315625 32 0 C32.495 4.455 32.495 4.455 33 9 C34.010625 8.071875 35.02125 7.14375 36.0625 6.1875 C44.22701496 -0.65129174 51.50792594 -0.8411847 62 0 C67.9354941 1.2429411 72.75602167 3.95505491 76.37890625 8.87109375 C79.99530749 14.65115385 81.16283709 20.19573587 81 27 C80.67 27.66 80.34 28.32 80 29 C69.11 29 58.22 29 47 29 C50.23726869 33.8917562 50.23726869 33.8917562 53.04296875 34.8125 C59.0839309 35.34067155 63.3616644 34.23743476 69 32 C71.64 34.64 74.28 37.28 77 40 C74.48116625 45.0376675 72.88980332 45.51220533 68 48 C59.63915535 50.78694822 48.84629496 49.9243591 40.9765625 46.12109375 C34.97006842 42.71424829 31.18467782 38.61748884 29 32 C27.85309278 19.29381443 27.85309278 19.29381443 30 15 C28.55622465 15.37229427 27.12000903 15.77396868 25.6875 16.1875 C24.88699219 16.40792969 24.08648437 16.62835938 23.26171875 16.85546875 C20.23212187 18.38858081 19.50135616 19.97620121 18 23 C17.50294226 25.89033449 17.50294226 25.89033449 17.48828125 28.95703125 C17.45283203 30.06884766 17.41738281 31.18066406 17.38085938 32.32617188 C17.35830078 33.47666016 17.33574219 34.62714844 17.3125 35.8125 C17.27833984 36.98232422 17.24417969 38.15214844 17.20898438 39.35742188 C17.12668363 42.23794788 17.06166067 45.11895828 17 48 C11.39 48 5.78 48 0 48 C0 32.16 0 16.32 0 0 Z M48 15 C47.34 16.32 46.68 17.64 46 19 C51.94 19 57.88 19 64 19 C61.57347843 13.88120212 61.57347843 13.88120212 57.6875 12.5 C53.29077413 11.90383378 51.60638128 12.48392004 48 15 Z " fill="#FFFFFF" transform="translate(353,233)"/>
<path d="M0 0 C4.0665254 2.6854413 7.21259395 5.43218453 9 10 C9.94964347 16.70026226 9.43580555 21.67734802 5.4453125 27.20703125 C4.96835938 27.79871094 4.49140625 28.39039063 4 29 C3.52304688 29.60199219 3.04609375 30.20398438 2.5546875 30.82421875 C1.39913272 32.24059875 0.20372033 33.62431962 -1 35 C-0.566875 35.47050781 -0.13375 35.94101563 0.3125 36.42578125 C0.869375 37.04839844 1.42625 37.67101562 2 38.3125 C2.556875 38.92738281 3.11375 39.54226562 3.6875 40.17578125 C5 42 5 42 5 45 C3.96101563 45.4846875 2.92203125 45.969375 1.8515625 46.46875 C-6.58803577 50.49151374 -14.0376408 54.64546581 -21 61 C-21.886875 61.804375 -22.77375 62.60875 -23.6875 63.4375 C-27.01253407 67.12199721 -30.00830603 71.04268723 -33 75 C-35.60045875 72.6975881 -36.84739183 70.50103323 -38.1875 67.3125 C-38.53167969 66.50425781 -38.87585938 65.69601563 -39.23046875 64.86328125 C-39.48441406 64.24839844 -39.73835938 63.63351563 -40 63 C-40.8353125 63.23396484 -40.8353125 63.23396484 -41.6875 63.47265625 C-47.21570193 64.88272127 -51.4247056 65.3938236 -57 64 C-60.1786241 61.4300486 -61.70728109 59.87815673 -63 56 C-63.5358577 50.42707996 -62.56500109 46.32756817 -59 42 C-54.63843128 37.79013801 -51.78226576 36.48674068 -45.75 35.25 C-39.80728889 33.66532548 -36.98184497 31.3978751 -33.88964844 26.08398438 C-32.68819792 23.81381874 -31.50421042 21.53528899 -30.32421875 19.25390625 C-24.65765933 8.38800902 -12.97108573 -2.16184762 0 0 Z " fill="#FAFBFB" transform="translate(94,184)"/>
<path d="M0 0 C5.94 0 11.88 0 18 0 C18 21.45 18 42.9 18 65 C12.06 65 6.12 65 0 65 C0 43.55 0 22.1 0 0 Z " fill="#FFFFFF" transform="translate(189,216)"/>
<path d="M0 0 C5.61 0 11.22 0 17 0 C17 21.45 17 42.9 17 65 C11.39 65 5.78 65 0 65 C0 43.55 0 22.1 0 0 Z " fill="#FFFFFF" transform="translate(169,216)"/>
<path d="M0 0 C5.61 0 11.22 0 17 0 C18 1 18 1 18.12025452 2.90455627 C18.1169236 4.15365028 18.1169236 4.15365028 18.11352539 5.42797852 C18.11344986 6.36887833 18.11337433 7.30977814 18.11329651 8.27919006 C18.10813522 9.30209641 18.10297394 10.32500275 18.09765625 11.37890625 C18.0962413 12.42070541 18.09482635 13.46250458 18.09336853 14.53587341 C18.0877508 17.87811094 18.0751953 21.22028257 18.0625 24.5625 C18.05748728 26.82226466 18.05292398 29.08203037 18.04882812 31.34179688 C18.03777561 36.89455682 18.0204991 42.44726722 18 48 C12.06 48 6.12 48 0 48 C0 32.16 0 16.32 0 0 Z " fill="#FFFFFF" transform="translate(332,233)"/>
<path d="M0 0 C5.61 0 11.22 0 17 0 C17 15.84 17 31.68 17 48 C11.39 48 5.78 48 0 48 C0 32.16 0 16.32 0 0 Z " fill="#FFFFFF" transform="translate(210,233)"/>
<path d="M0 0 C4.0665254 2.6854413 7.21259395 5.43218453 9 10 C9.94964347 16.70026226 9.43580555 21.67734802 5.4453125 27.20703125 C4.96835938 27.79871094 4.49140625 28.39039063 4 29 C3.52304688 29.60199219 3.04609375 30.20398438 2.5546875 30.82421875 C1.39913272 32.24059875 0.20372033 33.62431962 -1 35 C-0.566875 35.47050781 -0.13375 35.94101563 0.3125 36.42578125 C0.869375 37.04839844 1.42625 37.67101562 2 38.3125 C2.556875 38.92738281 3.11375 39.54226562 3.6875 40.17578125 C5 42 5 42 5 45 C3.96101563 45.4846875 2.92203125 45.969375 1.8515625 46.46875 C-6.58803577 50.49151374 -14.0376408 54.64546581 -21 61 C-21.886875 61.804375 -22.77375 62.60875 -23.6875 63.4375 C-27.01253407 67.12199721 -30.00830603 71.04268723 -33 75 C-35.60045875 72.6975881 -36.84739183 70.50103323 -38.1875 67.3125 C-38.53167969 66.50425781 -38.87585938 65.69601563 -39.23046875 64.86328125 C-39.48441406 64.24839844 -39.73835938 63.63351563 -40 63 C-40.8353125 63.23396484 -40.8353125 63.23396484 -41.6875 63.47265625 C-47.21570193 64.88272127 -51.4247056 65.3938236 -57 64 C-60.1786241 61.4300486 -61.70728109 59.87815673 -63 56 C-63.5358577 50.42707996 -62.56500109 46.32756817 -59 42 C-54.63843128 37.79013801 -51.78226576 36.48674068 -45.75 35.25 C-39.80728889 33.66532548 -36.98184497 31.3978751 -33.88964844 26.08398438 C-32.68819792 23.81381874 -31.50421042 21.53528899 -30.32421875 19.25390625 C-24.65765933 8.38800902 -12.97108573 -2.16184762 0 0 Z M-18 8 C-19.051875 8.763125 -20.10375 9.52625 -21.1875 10.3125 C-27.11535733 15.976897 -31.47568223 23.6238836 -35 31 C-35 31.66 -35 32.32 -35 33 C-33.02 32.34 -31.04 31.68 -29 31 C-33.5691425 33.58630708 -37.28903909 35.18892402 -42.5 35.9375 C-49.2111839 36.99863033 -53.61408923 39.67526643 -58.4375 44.375 C-60.44387606 47.74571178 -60.93231289 50.07414771 -61 54 C-59.91502376 58.09971938 -58.61689344 60.58873771 -55 63 C-49.39859188 63.53859693 -45.9182611 62.40894421 -41 60 C-41 59.34 -41 58.68 -41 58 C-40.67 58 -40.34 58 -40 58 C-38.02 62.29 -36.04 66.58 -34 71 C-32.35 69.35 -30.7 67.7 -29 66 C-19.40435118 56.57350525 -9.199649 49.74101129 3 44 C0.53974941 39.48954059 -2.60282037 35.81495577 -6 32 C-13.1424597 35.05114783 -18.68096722 37.59971274 -22.81640625 44.36328125 C-24 46 -24 46 -27 47 C-26.195625 46.2575 -25.39125 45.515 -24.5625 44.75 C-21.86939368 42.34229385 -21.86939368 42.34229385 -21.5625 39.8125 C-21.2840625 38.9153125 -21.2840625 38.9153125 -21 38 C-19.00491933 37.31875294 -17.00361307 36.65572791 -15 36 C-10.20962843 32.99337523 -6.28042159 29.64726392 -3 25 C-3.66 27.31 -4.32 29.62 -5 32 C-1.15926546 32.42582321 -1.15926546 32.42582321 0.6328125 30.64453125 C4.96359339 25.32742069 7.55352892 21.28310329 7.390625 14.12890625 C6.67096441 10.20675601 4.52538207 7.03045848 2 4 C-5.73058292 -1.15372195 -11.57807587 3.00118382 -18 8 Z " fill="#23292A" transform="translate(94,184)"/>
<path d="M0 0 C3.12809283 2.00197941 4.62325758 3.28599168 5.43359375 6.97265625 C5.65366257 10.54043862 5.3091602 12.59809173 3.125 15.4375 C-1.10640728 18.54882888 -4.86522127 18.62078499 -10 18 C-13 16.4375 -13 16.4375 -15 14 C-16.14888518 10.05070721 -16.43129396 7.97041141 -14.75 4.1875 C-10.68205934 -0.89742582 -6.06763832 -0.91787522 0 0 Z " fill="#FFFFFF" transform="translate(346,211)"/>
<path d="M0 0 C4.54054054 2.08108108 4.54054054 2.08108108 6 5 C6.39447548 9.18144011 6.45035186 11.30946048 4.125 14.875 C1.26214372 17.73785628 -0.36716762 18.1865146 -4.3125 18.3125 C-7.83541599 18.28413514 -8.89358919 18.06650675 -12 16.125 C-14.37317421 13.6035024 -14.93025694 12.62768757 -15.3125 9.1875 C-14.92835642 5.2692355 -13.70743683 3.78706733 -11 1 C-7.55611807 -0.72194097 -3.77311176 -0.37796284 0 0 Z " fill="#FFFFFF" transform="translate(223,211)"/>
<path d="M0 0 C0.66 0.66 1.32 1.32 2 2 C1.46632812 2.268125 0.93265625 2.53625 0.3828125 2.8125 C-11.11950183 8.86216013 -18.70777511 16.43155813 -26 27 C-28.60045875 24.6975881 -29.84739183 22.50103323 -31.1875 19.3125 C-31.53167969 18.50425781 -31.87585937 17.69601563 -32.23046875 16.86328125 C-32.48441406 16.24839844 -32.73835938 15.63351563 -33 15 C-37.455 15.495 -37.455 15.495 -42 16 C-40.49736177 12.99472353 -38.08347159 13.02782386 -35 12 C-34.67 11.34 -34.34 10.68 -34 10 C-35.32 9.34 -36.64 8.68 -38 8 C-35.70703125 8.08984375 -35.70703125 8.08984375 -33 9 C-31.19921875 11.94140625 -31.19921875 11.94140625 -29.6875 15.5625 C-29.17574219 16.76003906 -28.66398437 17.95757812 -28.13671875 19.19140625 C-27.76160156 20.11824219 -27.38648438 21.04507813 -27 22 C-26.28070313 21.27554688 -25.56140625 20.55109375 -24.8203125 19.8046875 C-17.11159505 12.13867762 -9.41291232 5.49845169 0 0 Z " fill="#3C4143" transform="translate(87,232)"/>
<path d="M0 0 C0.6875 1.625 0.6875 1.625 1 4 C0.06833174 6.03273074 -0.9349985 8.03384339 -2 10 C-2.68636625 12.23525035 -2.68636625 12.23525035 -3 14 C-3.66 13.67 -4.32 13.34 -5 13 C-6.92548639 14.00057413 -6.92548639 14.00057413 -8.9375 15.4375 C-12.67302452 18 -12.67302452 18 -16 18 C-16.20625 18.721875 -16.4125 19.44375 -16.625 20.1875 C-18.66532003 24.36088187 -21.64863084 27.08584045 -25.94921875 28.7578125 C-27.61524981 29.23768351 -29.30672953 29.6274805 -31 30 C-29.72254564 27.44509128 -28.71723654 27.3324724 -26.125 26.25 C-22.57426192 24.59116751 -22.57426192 24.59116751 -20.6875 21.125 C-18.69736138 17.43955811 -17.3589854 16.91304708 -13.6875 15.0625 C-7.42798914 11.89962547 -3.60424932 8.42725991 -0.625 2.0625 C-0.315625 1.0415625 -0.315625 1.0415625 0 0 Z " fill="#525658" transform="translate(92,204)"/>
<path d="M0 0 C1.27547526 2.36873977 2.15976068 4.53253561 2.9375 7.125 C3.78326486 10.28030057 3.78326486 10.28030057 7 12 C8.9896995 12.39013716 10.99019869 12.73202649 13 13 C13 13.66 13 14.32 13 15 C8.3731507 14.76473648 5.88920506 14.62433547 2.0625 11.9375 C-0.64479189 8.08166004 -0.84411918 5.67642449 -1 1 C-0.67 0.67 -0.34 0.34 0 0 Z " fill="#242A2C" transform="translate(32,234)"/>
<path d="M0 0 C0.66 0.66 1.32 1.32 2 2 C1.45730469 2.31453125 0.91460937 2.6290625 0.35546875 2.953125 C-5.14384368 6.11197641 -5.14384368 6.11197641 -9 11 C-9.71433121 13.64934822 -9.71433121 13.64934822 -10 16 C-10.99 15.67 -11.98 15.34 -13 15 C-11.67156322 9.92778685 -9.66526714 6.74856867 -6 3 C-2.6875 1.125 -2.6875 1.125 0 0 Z " fill="#2F3436" transform="translate(44,220)"/>
<path d="M0 0 C0.6875 1.625 0.6875 1.625 1 4 C0.06833174 6.03273074 -0.9349985 8.03384339 -2 10 C-2.68636625 12.23525035 -2.68636625 12.23525035 -3 14 C-3.66 13.67 -4.32 13.34 -5 13 C-5.825 13.495 -6.65 13.99 -7.5 14.5 C-8.325 14.995 -9.15 15.49 -10 16 C-10.66 15.67 -11.32 15.34 -12 15 C-11.38511719 14.50371094 -10.77023438 14.00742188 -10.13671875 13.49609375 C-5.17462487 9.32540241 -1.94663193 6.22922217 0 0 Z " fill="#3F4446" transform="translate(92,204)"/>
<path d="M0 0 C0.66 0 1.32 0 2 0 C0.22054913 4.04420651 -2.39529673 7.46078487 -5 11 C-7.2477975 8.94766315 -8.0022242 7.99332739 -9 5 C-7.68 5.33 -6.36 5.66 -5 6 C-4.21625 5.01 -3.4325 4.02 -2.625 3 C-1.75875 2.01 -0.8925 1.02 0 0 Z " fill="#272C2E" transform="translate(66,248)"/>
<path d="M0 0 C-2.64341928 1.76227952 -5.23077235 3.19871008 -8.0625 4.625 C-8.94035156 5.07101563 -9.81820312 5.51703125 -10.72265625 5.9765625 C-13 7 -13 7 -15 7 C-15 6.34 -15 5.68 -15 5 C-13.44424022 4.15415002 -11.8800388 3.32381601 -10.3125 2.5 C-9.44238281 2.0359375 -8.57226562 1.571875 -7.67578125 1.09375 C-4.88211171 -0.04818792 -2.98370887 -0.21504208 0 0 Z " fill="#1E2425" transform="translate(91,184)"/>
<path d="M0 0 C0.99 0.33 1.98 0.66 3 1 C0.525 5.455 0.525 5.455 -2 10 C-2.66 9.34 -3.32 8.68 -4 8 C-2.68 5.36 -1.36 2.72 0 0 Z " fill="#2E3334" transform="translate(62,205)"/>
<path d="M0 0 C-3.65333143 2.63379708 -6.48521602 4.46884894 -11 5 C-8.10998474 1.78887193 -4.47884754 -2.23942377 0 0 Z " fill="#525758" transform="translate(66,215)"/>
<path d="M0 0 C0.66 0.66 1.32 1.32 2 2 C-1.96 3.98 -1.96 3.98 -6 6 C-6 5.01 -6 4.02 -6 3 C-4.02 2.01 -2.04 1.02 0 0 Z " fill="#272C2D" transform="translate(44,220)"/>
</svg>
